<?xml version="1.0" encoding="UTF-8" standalone="no"?>
<!-- Created with Inkscape (http://www.inkscape.org/) -->

<svg
   version="1.1"
   id="svg1"
   width="880"
   height="880"
   viewBox="0 0 880 880"
   sodipodi:docname="4ac59a23-5fb3-4f41-8ce9-79da405d1141.ai"
   xmlns:inkscape="http://www.inkscape.org/namespaces/inkscape"
   xmlns:sodipodi="http://sodipodi.sourceforge.net/DTD/sodipodi-0.dtd"
   xmlns="http://www.w3.org/2000/svg"
   xmlns:svg="http://www.w3.org/2000/svg">
  <defs
     id="defs1">
    <clipPath
       clipPathUnits="userSpaceOnUse"
       id="clipPath3">
      <path
         d="M 0,660 H 660 V 0 H 0 Z"
         id="path3" />
    </clipPath>
    <clipPath
       clipPathUnits="userSpaceOnUse"
       id="clipPath5">
      <path
         d="M 0,660 H 660 V 0 H 0 Z"
         id="path5" />
    </clipPath>
    <clipPath
       clipPathUnits="userSpaceOnUse"
       id="clipPath7">
      <path
         d="M 0,660 H 660 V 0 H 0 Z"
         id="path7" />
    </clipPath>
    <clipPath
       clipPathUnits="userSpaceOnUse"
       id="clipPath9">
      <path
         d="M 0,660 H 660 V 0 H 0 Z"
         id="path9" />
    </clipPath>
    <clipPath
       clipPathUnits="userSpaceOnUse"
       id="clipPath11">
      <path
         d="M 0,660 H 660 V 0 H 0 Z"
         id="path11" />
    </clipPath>
    <clipPath
       clipPathUnits="userSpaceOnUse"
       id="clipPath13">
      <path
         d="M 0,660 H 660 V 0 H 0 Z"
         id="path13" />
    </clipPath>
    <clipPath
       clipPathUnits="userSpaceOnUse"
       id="clipPath15">
      <path
         d="M 0,660 H 660 V 0 H 0 Z"
         id="path15" />
    </clipPath>
    <clipPath
       clipPathUnits="userSpaceOnUse"
       id="clipPath17">
      <path
         d="M 0,660 H 660 V 0 H 0 Z"
         id="path17" />
    </clipPath>
    <clipPath
       clipPathUnits="userSpaceOnUse"
       id="clipPath19">
      <path
         d="M 0,660 H 660 V 0 H 0 Z"
         id="path19" />
    </clipPath>
    <clipPath
       clipPathUnits="userSpaceOnUse"
       id="clipPath21">
      <path
         d="M 0,660 H 660 V 0 H 0 Z"
         id="path21" />
    </clipPath>
    <clipPath
       clipPathUnits="userSpaceOnUse"
       id="clipPath23">
      <path
         d="M 0,660 H 660 V 0 H 0 Z"
         id="path23" />
    </clipPath>
    <clipPath
       clipPathUnits="userSpaceOnUse"
       id="clipPath25">
      <path
         d="M 0,660 H 660 V 0 H 0 Z"
         id="path25" />
    </clipPath>
    <clipPath
       clipPathUnits="userSpaceOnUse"
       id="clipPath27">
      <path
         d="M 0,660 H 660 V 0 H 0 Z"
         id="path27" />
    </clipPath>
    <clipPath
       clipPathUnits="userSpaceOnUse"
       id="clipPath29">
      <path
         d="M 0,660 H 660 V 0 H 0 Z"
         id="path29" />
    </clipPath>
    <clipPath
       clipPathUnits="userSpaceOnUse"
       id="clipPath31">
      <path
         d="M 0,660 H 660 V 0 H 0 Z"
         id="path31" />
    </clipPath>
    <clipPath
       clipPathUnits="userSpaceOnUse"
       id="clipPath33">
      <path
         d="M 0,660 H 660 V 0 H 0 Z"
         id="path33" />
    </clipPath>
    <clipPath
       clipPathUnits="userSpaceOnUse"
       id="clipPath35">
      <path
         d="M 0,660 H 660 V 0 H 0 Z"
         id="path35" />
    </clipPath>
    <clipPath
       clipPathUnits="userSpaceOnUse"
       id="clipPath37">
      <path
         d="M 0,660 H 660 V 0 H 0 Z"
         id="path37" />
    </clipPath>
    <clipPath
       clipPathUnits="userSpaceOnUse"
       id="clipPath39">
      <path
         d="M 0,660 H 660 V 0 H 0 Z"
         id="path39" />
    </clipPath>
    <clipPath
       clipPathUnits="userSpaceOnUse"
       id="clipPath41">
      <path
         d="M 0,660 H 660 V 0 H 0 Z"
         id="path41" />
    </clipPath>
    <clipPath
       clipPathUnits="userSpaceOnUse"
       id="clipPath43">
      <path
         d="M 0,660 H 660 V 0 H 0 Z"
         id="path43" />
    </clipPath>
    <clipPath
       clipPathUnits="userSpaceOnUse"
       id="clipPath45">
      <path
         d="M 0,660 H 660 V 0 H 0 Z"
         id="path45" />
    </clipPath>
    <clipPath
       clipPathUnits="userSpaceOnUse"
       id="clipPath47">
      <path
         d="M 0,660 H 660 V 0 H 0 Z"
         id="path47" />
    </clipPath>
    <clipPath
       clipPathUnits="userSpaceOnUse"
       id="clipPath49">
      <path
         d="M 0,660 H 660 V 0 H 0 Z"
         id="path49" />
    </clipPath>
    <clipPath
       clipPathUnits="userSpaceOnUse"
       id="clipPath51">
      <path
         d="M 0,660 H 660 V 0 H 0 Z"
         id="path51" />
    </clipPath>
    <clipPath
       clipPathUnits="userSpaceOnUse"
       id="clipPath53">
      <path
         d="M 0,660 H 660 V 0 H 0 Z"
         id="path53" />
    </clipPath>
    <clipPath
       clipPathUnits="userSpaceOnUse"
       id="clipPath55">
      <path
         d="M 0,660 H 660 V 0 H 0 Z"
         id="path55" />
    </clipPath>
    <clipPath
       clipPathUnits="userSpaceOnUse"
       id="clipPath57">
      <path
         d="M 0,660 H 660 V 0 H 0 Z"
         id="path57" />
    </clipPath>
    <clipPath
       clipPathUnits="userSpaceOnUse"
       id="clipPath59">
      <path
         d="M 0,660 H 660 V 0 H 0 Z"
         id="path59" />
    </clipPath>
    <clipPath
       clipPathUnits="userSpaceOnUse"
       id="clipPath61">
      <path
         d="M 0,660 H 660 V 0 H 0 Z"
         id="path61" />
    </clipPath>
    <clipPath
       clipPathUnits="userSpaceOnUse"
       id="clipPath63">
      <path
         d="M 0,660 H 660 V 0 H 0 Z"
         id="path63" />
    </clipPath>
    <clipPath
       clipPathUnits="userSpaceOnUse"
       id="clipPath65">
      <path
         d="M 0,660 H 660 V 0 H 0 Z"
         id="path65" />
    </clipPath>
    <clipPath
       clipPathUnits="userSpaceOnUse"
       id="clipPath67">
      <path
         d="M 0,660 H 660 V 0 H 0 Z"
         id="path67" />
    </clipPath>
    <clipPath
       clipPathUnits="userSpaceOnUse"
       id="clipPath69">
      <path
         d="M 0,660 H 660 V 0 H 0 Z"
         id="path69" />
    </clipPath>
    <clipPath
       clipPathUnits="userSpaceOnUse"
       id="clipPath71">
      <path
         d="M 0,660 H 660 V 0 H 0 Z"
         id="path71" />
    </clipPath>
    <clipPath
       clipPathUnits="userSpaceOnUse"
       id="clipPath73">
      <path
         d="M 0,660 H 660 V 0 H 0 Z"
         id="path73" />
    </clipPath>
    <clipPath
       clipPathUnits="userSpaceOnUse"
       id="clipPath75">
      <path
         d="M 0,660 H 660 V 0 H 0 Z"
         id="path75" />
    </clipPath>
    <clipPath
       clipPathUnits="userSpaceOnUse"
       id="clipPath77">
      <path
         d="M 0,660 H 660 V 0 H 0 Z"
         id="path77" />
    </clipPath>
    <clipPath
       clipPathUnits="userSpaceOnUse"
       id="clipPath79">
      <path
         d="M 0,660 H 660 V 0 H 0 Z"
         id="path79" />
    </clipPath>
    <clipPath
       clipPathUnits="userSpaceOnUse"
       id="clipPath81">
      <path
         d="M 0,660 H 660 V 0 H 0 Z"
         id="path81" />
    </clipPath>
    <clipPath
       clipPathUnits="userSpaceOnUse"
       id="clipPath83">
      <path
         d="M 0,660 H 660 V 0 H 0 Z"
         id="path83" />
    </clipPath>
    <clipPath
       clipPathUnits="userSpaceOnUse"
       id="clipPath85">
      <path
         d="M 0,660 H 660 V 0 H 0 Z"
         id="path85" />
    </clipPath>
    <clipPath
       clipPathUnits="userSpaceOnUse"
       id="clipPath87">
      <path
         d="M 0,660 H 660 V 0 H 0 Z"
         id="path87" />
    </clipPath>
    <clipPath
       clipPathUnits="userSpaceOnUse"
       id="clipPath89">
      <path
         d="M 0,660 H 660 V 0 H 0 Z"
         id="path89" />
    </clipPath>
    <clipPath
       clipPathUnits="userSpaceOnUse"
       id="clipPath91">
      <path
         d="M 0,660 H 660 V 0 H 0 Z"
         id="path91" />
    </clipPath>
    <clipPath
       clipPathUnits="userSpaceOnUse"
       id="clipPath93">
      <path
         d="M 0,660 H 660 V 0 H 0 Z"
         id="path93" />
    </clipPath>
    <clipPath
       clipPathUnits="userSpaceOnUse"
       id="clipPath95">
      <path
         d="M 0,660 H 660 V 0 H 0 Z"
         id="path95" />
    </clipPath>
  </defs>
  <sodipodi:namedview
     id="namedview1"
     pagecolor="#ffffff"
     bordercolor="#000000"
     borderopacity="0.25"
     inkscape:showpageshadow="2"
     inkscape:pageopacity="0.0"
     inkscape:pagecheckerboard="0"
     inkscape:deskcolor="#d1d1d1">
    <inkscape:page
       x="0"
       y="0"
       inkscape:label="1"
       id="page1"
       width="880"
       height="880"
       margin="15.860666 54.890667 34.720001 46.115868"
       bleed="0" />
  </sodipodi:namedview>
  <g
     id="g1"
     inkscape:groupmode="layer"
     inkscape:label="1">
    <g
       id="group-MC0">
      <path
         id="path52"
         d="m 326.709,595.167 c 161.337,0 292.123,-130.788 292.123,-292.123 0,-75.812 -28.884,-144.877 -76.242,-196.797 H 110.83 c -47.359,51.92 -76.243,120.985 -76.243,196.797 0,161.335 130.788,292.123 292.122,292.123"
         style="fill:#bfecff;fill-opacity:1;fill-rule:evenodd;stroke:none"
         transform="matrix(1.3333333,0,0,-1.3333333,0,880)"
         clip-path="url(#clipPath53)" />
      <path
         id="path54"
         d="m 138.111,386.073 h 377.198 c 10.309,0 18.742,-8.433 18.742,-18.742 V 124.848 c 0,-10.309 -8.433,-18.743 -18.742,-18.743 H 138.111 c -10.308,0 -18.742,8.434 -18.742,18.743 v 242.483 c 0,10.309 8.434,18.742 18.742,18.742"
         style="fill:#3f3d4f;fill-opacity:1;fill-rule:evenodd;stroke:none"
         transform="matrix(1.3333333,0,0,-1.3333333,0,880)"
         clip-path="url(#clipPath55)" />
      <path
         id="path56"
         d="M 145.141,131.875 H 508.279 V 360.301 H 145.141 Z"
         style="fill:#6158a1;fill-opacity:1;fill-rule:evenodd;stroke:none"
         transform="matrix(1.3333333,0,0,-1.3333333,0,880)"
         clip-path="url(#clipPath57)" />
      <path
         id="path58"
         d="m 75.732,114.892 h 501.956 c 6.925,0 12.592,-5.667 12.592,-12.594 v -0.002 c 0,-6.925 -5.667,-12.591 -12.592,-12.591 H 75.732 c -6.925,0 -12.592,5.666 -12.592,12.591 v 0.002 c 0,6.927 5.667,12.594 12.592,12.594"
         style="fill:#26243b;fill-opacity:1;fill-rule:evenodd;stroke:none"
         transform="matrix(1.3333333,0,0,-1.3333333,0,880)"
         clip-path="url(#clipPath59)" />
      <path
         id="path60"
         d="m 463.97,157.98 h 26.094 v -6.631 H 463.97 Z m -84.386,0 h 51.96 v -6.631 h -51.96 z m -100.548,0 h 68.124 v -6.631 h -68.124 z m -68.123,0 h 45.979 v -6.631 h -45.979 z m -47.555,0 h 25.412 v -6.631 h -25.412 z m 248.363,18.285 h 44.904 v -6.631 h -44.904 z m -89.583,0 H 385 v -6.631 h -62.862 z m -87.89,0 h 61.17 v -6.631 h -61.17 z m -70.89,0 h 44.171 v -6.631 h -44.171 z m 298.352,18.284 h 28.354 v -6.631 H 461.71 Z m -76.71,0 h 54.565 v -6.631 H 385 Z m -109.012,0 h 64.844 v -6.631 h -64.844 z m -68.459,0 h 41.74 v -6.631 h -41.74 z m -44.171,0 h 23.837 v -6.631 h -23.837 z m 311.119,18.284 h 15.587 v -6.631 h -15.587 z m -42.933,0 h 30.166 v -6.631 h -30.166 z m -37.842,0 h 22.595 v -6.631 h -22.595 z m -72.298,0 h 35.472 v -6.631 h -35.472 z m -84.446,0 h 40.276 v -6.631 h -40.276 z m -73.6,0 h 33.102 v -6.631 h -33.102 z m 250.678,18.286 h 76.027 v -6.633 h -76.027 z m -82.92,0 h 62.586 v -6.633 h -62.586 z m -74.223,0 h 44.625 v -6.633 h -44.625 z m -93.535,0 h 78.288 v -6.633 h -78.288 z m 284.909,18.287 h 26.21 v -6.634 h -26.21 z m -69.251,0 h 43.947 v -6.634 h -43.947 z m -69.758,0 h 53.153 v -6.634 h -53.153 z m -86.591,0 h 46.092 v -6.634 h -46.092 z m -59.309,0 h 38.524 v -6.634 h -38.524 z m 264.344,18.284 h 62.361 v -6.634 h -62.361 z m -73.993,0 h 58.744 v -6.634 h -58.744 z m -66.31,0 h 39.312 v -6.634 h -39.312 z m -56.034,0 h 35.7 v -6.634 h -35.7 z m -68.007,0 h 33.102 v -6.634 h -33.102 z m 230.569,18.285 h 35.362 v -6.632 h -35.362 z m -77.838,0 h 62.591 v -6.632 h -62.591 z m -99.297,0 h 84.049 v -6.632 h -84.049 z m -53.434,0 h 33.102 v -6.632 h -33.102 z m 303.773,18.284 h 22.933 v -6.631 h -22.933 z m -105.738,0 h 73.202 v -6.631 h -73.202 z m -77.272,0 h 51.967 v -6.631 h -51.967 z m -55.127,0 h 29.824 v -6.631 h -29.824 z m -65.636,0 h 33.102 v -6.631 h -33.102 z m 215.322,36.57 h 69.587 v -6.633 H 378.68 Z m -111.615,0 h 79.078 v -6.633 h -79.078 z m -103.707,0 h 48.127 v -6.633 h -48.127 z m 265.931,-18.286 h 60.774 v -6.631 h -60.774 z m -102.578,0 h 77.273 v -6.631 h -77.273 z m -163.353,0 h 128.446 v -6.631 H 163.358 Z"
         style="fill:#9f96e0;fill-opacity:1;fill-rule:evenodd;stroke:none"
         transform="matrix(1.3333333,0,0,-1.3333333,0,880)"
         clip-path="url(#clipPath61)" />
      <path
         id="path62"
         d="m 381.993,266.378 c 0.658,-8.034 0.16,-17.42 -1.048,-26.419 -1.224,-9.101 -1.241,-18.325 2.038,-26.902 0.499,-1.307 1.525,-2.344 2.83,-2.857 1.301,-0.512 2.76,-0.452 4.017,0.166 9.853,4.847 17.678,13.019 22.092,23.071 2.869,6.531 2.957,13.948 0.245,20.542 -3.386,7.796 5.718,9.341 4.496,17.574 -4.04,-0.675 -37.521,29.619 -34.67,-5.175 m -110.566,0 c -0.658,-8.034 -0.16,-17.42 1.048,-26.419 1.224,-9.101 1.241,-18.325 -2.037,-26.902 -0.5,-1.307 -1.528,-2.344 -2.831,-2.857 -1.302,-0.512 -2.761,-0.452 -4.018,0.166 -9.853,4.847 -17.676,13.019 -22.091,23.071 -2.869,6.531 -2.957,13.948 -0.245,20.542 3.385,7.796 -5.719,9.341 -4.496,17.574 4.039,-0.675 37.521,29.619 34.67,-5.175"
         style="fill:#1a1a1a;fill-opacity:1;fill-rule:evenodd;stroke:none"
         transform="matrix(1.3333333,0,0,-1.3333333,0,880)"
         clip-path="url(#clipPath63)" />
      <path
         id="path64"
         d="m 294.754,442.968 -42.39,-16.956 c -17.913,-5.233 -30.501,-21.295 -31.304,-39.939 -1.46,-33.936 0.447,-78.813 8.396,-111.834 5.568,-23.135 39.063,-22.98 44.977,-0.589 6.814,25.802 11.751,84.485 15.755,112.423 h 36.521 36.521 c 4.006,-27.938 8.943,-86.621 15.756,-112.423 5.915,-22.391 39.41,-22.546 44.98,0.589 7.946,33.021 9.854,77.898 8.394,111.834 -0.802,18.644 -13.39,34.706 -31.304,39.939 l -42.39,16.956 -5.216,11.739 h -26.741 -26.737 z"
         style="fill:#ffffff;fill-opacity:1;fill-rule:evenodd;stroke:none"
         transform="matrix(1.3333333,0,0,-1.3333333,0,880)"
         clip-path="url(#clipPath65)" />
      <path
         id="path66"
         d="m 320.019,559.731 -14.008,-4.46 c -22.19,-7.066 -40.569,-21.172 -51.521,-39.545 l 4.239,-4.013 c 6.329,-5.989 14.476,-10.264 23.478,-12.321 l 1.956,-8.311 c 4.891,-20.774 -0.97,-42.386 -15.996,-58.99 16.092,4.311 30.91,-23.035 58.542,-23.035 27.633,0 42.451,27.346 58.545,23.035 -15.028,16.604 -20.887,38.216 -15.996,58.99 l 1.956,8.311 c 9.003,2.057 17.147,6.332 23.477,12.321 l 4.239,4.013 c -10.951,18.373 -29.331,32.479 -51.521,39.545 l -14.008,4.46 -6.692,-5.893 z"
         style="fill:#6158a1;fill-opacity:1;fill-rule:evenodd;stroke:none"
         transform="matrix(1.3333333,0,0,-1.3333333,0,880)"
         clip-path="url(#clipPath67)" />
      <path
         id="path68"
         d="m 265.978,506.09 -0.771,-2.653 c -2.667,-9.187 -6.111,-18.129 -10.296,-26.731 -6.509,-13.38 -2.913,-29.484 8.67,-38.825 13.092,-10.559 29.099,-16.863 45.876,-18.069 l -7.586,14.63 -21.131,29.079 4.923,17.92 c -0.115,5.888 -1.175,12 -3.456,17.951 -5.864,1.756 -11.329,3.858 -16.229,6.698 m 121.464,0 0.771,-2.653 c 2.667,-9.187 6.11,-18.129 10.296,-26.731 6.509,-13.38 2.913,-29.484 -8.67,-38.825 -13.093,-10.559 -29.099,-16.863 -45.874,-18.069 l 7.584,14.63 21.133,29.079 -4.925,17.92 c 0.114,5.888 1.177,12 3.457,17.951 5.864,1.756 11.329,3.858 16.228,6.698"
         style="fill:#ff6666;fill-opacity:1;fill-rule:evenodd;stroke:none"
         transform="matrix(1.3333333,0,0,-1.3333333,0,880)"
         clip-path="url(#clipPath69)" />
      <path
         id="path70"
         d="m 282.313,479.107 h 88.795 c 2.881,0 4.841,-2.356 4.359,-5.237 l -8.187,-48.822 c -0.484,-2.88 -3.235,-5.236 -6.114,-5.236 h -68.912 c -2.879,0 -5.629,2.356 -6.113,5.236 l -8.188,48.822 c -0.482,2.881 1.479,5.237 4.36,5.237"
         style="fill:#ffffff;fill-opacity:1;fill-rule:evenodd;stroke:none"
         transform="matrix(1.3333333,0,0,-1.3333333,0,880)"
         clip-path="url(#clipPath71)" />
      <path
         id="path72"
         d="m 326.711,538.077 c 7.997,0 14.521,6.386 14.521,14.215 0,7.829 -6.524,14.215 -14.521,14.215 -7.998,0 -14.52,-6.386 -14.52,-14.215 0,-7.829 6.522,-14.215 14.52,-14.215"
         style="fill:#e34242;fill-opacity:1;fill-rule:evenodd;stroke:none"
         transform="matrix(1.3333333,0,0,-1.3333333,0,880)"
         clip-path="url(#clipPath73)" />
      <path
         id="path74"
         d="m 326.709,439.639 c 7.573,0 13.749,4.411 13.749,9.82 0,5.409 -6.176,9.82 -13.749,9.82 -7.57,0 -13.747,-4.411 -13.747,-9.82 0,-5.409 6.177,-9.82 13.747,-9.82"
         style="fill:#eae9f5;fill-opacity:1;fill-rule:evenodd;stroke:none"
         transform="matrix(1.3333333,0,0,-1.3333333,0,880)"
         clip-path="url(#clipPath75)" />
      <path
         id="path76"
         d="m 355.4,596.487 c -2.408,0.561 -5.054,-3.213 -5.91,-8.426 -0.856,-5.213 0.402,-9.894 2.81,-10.455 2.408,-0.56 5.054,3.213 5.911,8.426 0.853,5.214 -0.402,9.895 -2.811,10.455 m -57.381,0 c 2.408,0.561 5.055,-3.213 5.911,-8.426 0.856,-5.213 -0.403,-9.894 -2.81,-10.455 -2.408,-0.56 -5.053,3.213 -5.909,8.426 -0.857,5.214 0.401,9.895 2.808,10.455"
         style="fill:#e34242;fill-opacity:1;fill-rule:evenodd;stroke:none"
         transform="matrix(1.3333333,0,0,-1.3333333,0,880)"
         clip-path="url(#clipPath77)" />
      <path
         id="path78"
         d="M 299.809,606.313 V 574.25 c 0,-5.145 1.837,-10.122 5.18,-14.034 3.013,-3.526 6.498,-6.619 10.359,-9.19 3.361,-2.238 7.323,-3.404 11.361,-3.342 4.039,-0.062 8.001,1.104 11.362,3.342 3.861,2.571 7.348,5.664 10.361,9.19 3.341,3.912 5.179,8.889 5.179,14.034 v 32.063 c 0,1.958 -0.763,3.644 -2.24,4.933 -1.474,1.29 -3.244,1.825 -5.185,1.565 l -3.459,-0.463 c -11.166,-1.494 -20.868,-1.494 -32.035,0 l -3.457,0.463 c -1.941,0.26 -3.714,-0.275 -5.187,-1.565 -1.474,-1.289 -2.239,-2.975 -2.239,-4.933"
         style="fill:#ff6666;fill-opacity:1;fill-rule:evenodd;stroke:none"
         transform="matrix(1.3333333,0,0,-1.3333333,0,880)"
         clip-path="url(#clipPath79)" />
      <path
         id="path80"
         d="m 353.611,590.281 4.248,15.14 c 2.392,8.528 -2.348,17.428 -10.76,20.199 -7.054,11.12 -33.722,11.12 -40.778,0 -8.411,-2.771 -13.152,-11.671 -10.759,-20.199 l 4.247,-15.14 3.68,17.548 c 10.008,-6.84 36.434,-6.84 46.441,0 z"
         style="fill:#333333;fill-opacity:1;fill-rule:evenodd;stroke:none"
         transform="matrix(1.3333333,0,0,-1.3333333,0,880)"
         clip-path="url(#clipPath81)" />
      <path
         id="path82"
         d="m 332.486,591.877 v 4.665 l 9.745,-0.871 c 2.136,-0.191 4.124,-1.169 5.581,-2.744 l -2.197,-2.605 c -0.728,0.51 -1.582,0.81 -2.47,0.866 z"
         style="fill:#333333;fill-opacity:1;fill-rule:evenodd;stroke:none"
         transform="matrix(1.3333333,0,0,-1.3333333,0,880)"
         clip-path="url(#clipPath83)" />
      <path
         id="path84"
         d="m 337.541,578.884 c 2.152,0 3.91,2.126 3.91,4.735 0,2.607 -1.758,4.734 -3.91,4.734 -2.154,0 -3.912,-2.127 -3.912,-4.734 0,-2.609 1.758,-4.735 3.912,-4.735"
         style="fill:#333333;fill-opacity:1;fill-rule:evenodd;stroke:none"
         transform="matrix(1.3333333,0,0,-1.3333333,0,880)"
         clip-path="url(#clipPath85)" />
      <path
         id="path86"
         d="m 320.933,591.877 v 4.665 l -9.743,-0.871 c -2.136,-0.191 -4.125,-1.169 -5.581,-2.744 l 2.196,-2.605 c 0.728,0.51 1.582,0.81 2.47,0.866 z"
         style="fill:#333333;fill-opacity:1;fill-rule:evenodd;stroke:none"
         transform="matrix(1.3333333,0,0,-1.3333333,0,880)"
         clip-path="url(#clipPath87)" />
      <path
         id="path88"
         d="m 315.88,578.884 c 2.154,0 3.912,2.126 3.912,4.735 0,2.607 -1.758,4.734 -3.912,4.734 -2.154,0 -3.911,-2.127 -3.911,-4.734 0,-2.609 1.757,-4.735 3.911,-4.735"
         style="fill:#333333;fill-opacity:1;fill-rule:evenodd;stroke:none"
         transform="matrix(1.3333333,0,0,-1.3333333,0,880)"
         clip-path="url(#clipPath89)" />
      <path
         id="path90"
         d="m 317.662,564.086 c 0.306,-0.924 0.79,-1.788 1.433,-2.541 1.056,-1.235 2.278,-2.32 3.632,-3.221 1.178,-0.785 2.568,-1.195 3.982,-1.172 1.417,-0.023 2.805,0.387 3.985,1.172 1.354,0.901 2.575,1.986 3.632,3.221 0.643,0.753 1.125,1.617 1.433,2.541 z"
         style="fill:#ffffff;fill-opacity:1;fill-rule:evenodd;stroke:none"
         transform="matrix(1.3333333,0,0,-1.3333333,0,880)"
         clip-path="url(#clipPath91)" />
      <path
         id="path92"
         d="m 326.74,571.396 c 2.818,0 5.102,1.317 5.102,-0.034 0,-1.353 -2.284,-4.862 -5.102,-4.862 -2.818,0 -5.102,3.509 -5.102,4.862 0,1.351 2.284,0.034 5.102,0.034"
         style="fill:#e34242;fill-opacity:1;fill-rule:evenodd;stroke:none"
         transform="matrix(1.3333333,0,0,-1.3333333,0,880)"
         clip-path="url(#clipPath93)" />
      <path
         id="path94"
         d="m 309.093,585.097 h 35.233 v 3.981 h -35.233 z"
         style="fill:#ff6666;fill-opacity:1;fill-rule:evenodd;stroke:none"
         transform="matrix(1.3333333,0,0,-1.3333333,0,880)"
         clip-path="url(#clipPath95)" />
    </g>
  </g>
</svg>
